<mxfile host="65bd71144e">
    <diagram id="C5RBs43oDa-KdzZeNtuy" name="Page-1">
        <mxGraphModel dx="1488" dy="923" grid="0" gridSize="10" guides="1" tooltips="1" connect="1" arrows="1" fold="1" page="1" pageScale="1" pageWidth="850" pageHeight="1100" math="0" shadow="0">
            <root>
                <mxCell id="WIyWlLk6GJQsqaUBKTNV-0"/>
                <mxCell id="WIyWlLk6GJQsqaUBKTNV-1" parent="WIyWlLk6GJQsqaUBKTNV-0"/>
                <mxCell id="10" value="" style="shape=flexArrow;endArrow=classic;html=1;fontFamily=Helvetica;fontSize=10;exitX=0.5;exitY=1;exitDx=0;exitDy=0;entryX=0.5;entryY=0;entryDx=0;entryDy=0;rounded=0;fillColor=none;" parent="WIyWlLk6GJQsqaUBKTNV-1" source="25" target="27" edge="1">
                    <mxGeometry width="50" height="50" relative="1" as="geometry">
                        <mxPoint x="205" y="487" as="sourcePoint"/>
                        <mxPoint x="372" y="475" as="targetPoint"/>
                        <Array as="points"/>
                    </mxGeometry>
                </mxCell>
                <mxCell id="25" value="&lt;font style=&quot;font-size: 10px;&quot;&gt;Host&lt;/font&gt;" style="rounded=0;whiteSpace=wrap;html=1;fontSize=10;" vertex="1" parent="WIyWlLk6GJQsqaUBKTNV-1">
                    <mxGeometry x="601.5" y="468" width="101" height="45" as="geometry"/>
                </mxCell>
                <mxCell id="27" value="&lt;font style=&quot;font-size: 10px;&quot;&gt;Utente&lt;/font&gt;" style="rounded=0;whiteSpace=wrap;html=1;fontSize=10;" vertex="1" parent="WIyWlLk6GJQsqaUBKTNV-1">
                    <mxGeometry x="601.5" y="550" width="101" height="78" as="geometry"/>
                </mxCell>
                <mxCell id="194" style="edgeStyle=none;html=1;exitX=0.25;exitY=0;exitDx=0;exitDy=0;entryX=0.5;entryY=1;entryDx=0;entryDy=0;fontSize=10;startArrow=none;startFill=0;endArrow=none;endFill=0;fillColor=none;rounded=0;" edge="1" parent="WIyWlLk6GJQsqaUBKTNV-1" source="28" target="186">
                    <mxGeometry relative="1" as="geometry">
                        <Array as="points"/>
                    </mxGeometry>
                </mxCell>
                <mxCell id="239" style="edgeStyle=none;rounded=0;html=1;exitX=0;exitY=1;exitDx=0;exitDy=0;fontSize=10;startArrow=none;startFill=0;endArrow=none;endFill=0;fillColor=none;entryX=0.5;entryY=0;entryDx=0;entryDy=0;" edge="1" parent="WIyWlLk6GJQsqaUBKTNV-1" source="28" target="240">
                    <mxGeometry relative="1" as="geometry">
                        <mxPoint x="533.1428571428571" y="271" as="targetPoint"/>
                        <Array as="points">
                            <mxPoint x="627" y="229"/>
                            <mxPoint x="512" y="234"/>
                        </Array>
                    </mxGeometry>
                </mxCell>
                <mxCell id="28" value="&lt;font style=&quot;font-size: 10px;&quot;&gt;Alloggio&lt;/font&gt;" style="rounded=0;whiteSpace=wrap;html=1;fontSize=10;" vertex="1" parent="WIyWlLk6GJQsqaUBKTNV-1">
                    <mxGeometry x="627" y="128" width="101" height="45" as="geometry"/>
                </mxCell>
                <mxCell id="29" value="&lt;font style=&quot;font-size: 10px;&quot;&gt;Prenotazione&lt;/font&gt;" style="rounded=0;whiteSpace=wrap;html=1;fontSize=10;" vertex="1" parent="WIyWlLk6GJQsqaUBKTNV-1">
                    <mxGeometry x="311" y="259.5" width="101" height="45" as="geometry"/>
                </mxCell>
                <mxCell id="30" value="&lt;font style=&quot;font-size: 10px;&quot;&gt;Recensione&lt;/font&gt;" style="rounded=0;whiteSpace=wrap;html=1;fontSize=10;" vertex="1" parent="WIyWlLk6GJQsqaUBKTNV-1">
                    <mxGeometry x="466" y="951" width="101" height="53" as="geometry"/>
                </mxCell>
                <mxCell id="31" value="&lt;font style=&quot;font-size: 10px;&quot;&gt;Soggiorno&lt;/font&gt;" style="rounded=0;whiteSpace=wrap;html=1;fontSize=10;" vertex="1" parent="WIyWlLk6GJQsqaUBKTNV-1">
                    <mxGeometry x="491" y="816" width="101" height="45" as="geometry"/>
                </mxCell>
                <mxCell id="144" value="" style="endArrow=none;html=1;rounded=0;align=center;verticalAlign=top;endFill=0;labelBackgroundColor=none;endSize=6;startArrow=oval;startFill=0;fontSize=10;entryX=1;entryY=0.75;entryDx=0;entryDy=0;exitX=0;exitY=0.5;exitDx=0;exitDy=0;" edge="1" parent="WIyWlLk6GJQsqaUBKTNV-1" source="143" target="27">
                    <mxGeometry relative="1" as="geometry">
                        <mxPoint x="764" y="745" as="sourcePoint"/>
                        <mxPoint x="774.5" y="660" as="targetPoint"/>
                    </mxGeometry>
                </mxCell>
                <mxCell id="147" value="" style="endArrow=none;html=1;rounded=0;align=center;verticalAlign=top;endFill=0;labelBackgroundColor=none;endSize=6;startArrow=oval;startFill=1;fontSize=10;" edge="1" parent="WIyWlLk6GJQsqaUBKTNV-1">
                    <mxGeometry relative="1" as="geometry">
                        <mxPoint x="316" y="640" as="sourcePoint"/>
                        <mxPoint x="520" y="676" as="targetPoint"/>
                        <Array as="points">
                            <mxPoint x="360" y="692"/>
                        </Array>
                    </mxGeometry>
                </mxCell>
                <mxCell id="150" value="" style="endArrow=none;html=1;rounded=0;align=center;verticalAlign=top;endFill=0;labelBackgroundColor=none;endSize=6;startArrow=oval;startFill=0;fontSize=10;exitX=0;exitY=0.5;exitDx=0;exitDy=0;entryX=0.5;entryY=1;entryDx=0;entryDy=0;" edge="1" parent="WIyWlLk6GJQsqaUBKTNV-1" source="201" target="28">
                    <mxGeometry relative="1" as="geometry">
                        <mxPoint x="536.44" y="196.99" as="sourcePoint"/>
                        <mxPoint x="587" y="173" as="targetPoint"/>
                        <Array as="points">
                            <mxPoint x="678" y="216"/>
                        </Array>
                    </mxGeometry>
                </mxCell>
                <mxCell id="154" value="" style="endArrow=none;html=1;rounded=0;align=center;verticalAlign=top;endFill=0;labelBackgroundColor=none;endSize=6;startArrow=oval;startFill=0;fontSize=10;entryX=0.75;entryY=0;entryDx=0;entryDy=0;exitX=0;exitY=0.5;exitDx=0;exitDy=0;" edge="1" parent="WIyWlLk6GJQsqaUBKTNV-1" source="153" target="27">
                    <mxGeometry relative="1" as="geometry">
                        <mxPoint x="743" y="582" as="sourcePoint"/>
                        <mxPoint x="548.5" y="727" as="targetPoint"/>
                        <Array as="points">
                            <mxPoint x="714" y="524"/>
                        </Array>
                    </mxGeometry>
                </mxCell>
                <mxCell id="155" value="(1, N)" style="edgeLabel;html=1;align=center;verticalAlign=middle;resizable=0;points=[];fontSize=10;rounded=0;" vertex="1" connectable="0" parent="154">
                    <mxGeometry x="-0.5343" relative="1" as="geometry">
                        <mxPoint as="offset"/>
                    </mxGeometry>
                </mxCell>
                <mxCell id="164" value="Pagamento" style="text;html=1;strokeColor=none;fillColor=none;align=center;verticalAlign=middle;whiteSpace=wrap;rounded=0;labelBackgroundColor=none;labelBorderColor=none;fontSize=10;" vertex="1" parent="WIyWlLk6GJQsqaUBKTNV-1">
                    <mxGeometry x="790" y="574" width="60" height="30" as="geometry"/>
                </mxCell>
                <mxCell id="165" value="" style="endArrow=none;html=1;rounded=0;align=center;verticalAlign=top;endFill=0;labelBackgroundColor=none;endSize=6;startArrow=oval;startFill=0;fontSize=10;entryX=1;entryY=0.5;entryDx=0;entryDy=0;exitX=0;exitY=0.5;exitDx=0;exitDy=0;" edge="1" source="164" parent="WIyWlLk6GJQsqaUBKTNV-1" target="27">
                    <mxGeometry relative="1" as="geometry">
                        <mxPoint x="775" y="653" as="sourcePoint"/>
                        <mxPoint x="652.5" y="678.5" as="targetPoint"/>
                        <Array as="points"/>
                    </mxGeometry>
                </mxCell>
                <mxCell id="166" value="(0, N)" style="edgeLabel;html=1;align=center;verticalAlign=middle;resizable=0;points=[];fontSize=10;rounded=0;" vertex="1" connectable="0" parent="165">
                    <mxGeometry x="-0.4803" y="2" relative="1" as="geometry">
                        <mxPoint as="offset"/>
                    </mxGeometry>
                </mxCell>
                <mxCell id="167" value="Possiede" style="shape=rhombus;perimeter=rhombusPerimeter;whiteSpace=wrap;html=1;align=center;labelBackgroundColor=none;labelBorderColor=none;fontSize=10;rounded=0;" vertex="1" parent="WIyWlLk6GJQsqaUBKTNV-1">
                    <mxGeometry x="592" y="252" width="120" height="60" as="geometry"/>
                </mxCell>
                <mxCell id="172" value="" style="endArrow=none;html=1;rounded=0;fontSize=10;entryX=0.5;entryY=1;entryDx=0;entryDy=0;exitX=0.5;exitY=0;exitDx=0;exitDy=0;" edge="1" parent="WIyWlLk6GJQsqaUBKTNV-1" source="25" target="167">
                    <mxGeometry relative="1" as="geometry">
                        <mxPoint x="374" y="434" as="sourcePoint"/>
                        <mxPoint x="609" y="500" as="targetPoint"/>
                        <Array as="points">
                            <mxPoint x="652" y="445"/>
                        </Array>
                    </mxGeometry>
                </mxCell>
                <mxCell id="173" value="1" style="resizable=0;html=1;align=left;verticalAlign=bottom;labelBackgroundColor=none;labelBorderColor=none;fontSize=10;rounded=0;" connectable="0" vertex="1" parent="172">
                    <mxGeometry x="-1" relative="1" as="geometry"/>
                </mxCell>
                <mxCell id="174" value="N" style="resizable=0;html=1;align=right;verticalAlign=bottom;labelBackgroundColor=none;labelBorderColor=none;fontSize=10;rounded=0;" connectable="0" vertex="1" parent="172">
                    <mxGeometry x="1" relative="1" as="geometry"/>
                </mxCell>
                <mxCell id="175" value="" style="endArrow=none;html=1;rounded=0;fontSize=10;exitX=0.5;exitY=0;exitDx=0;exitDy=0;entryX=0.25;entryY=1;entryDx=0;entryDy=0;" edge="1" parent="WIyWlLk6GJQsqaUBKTNV-1" source="167" target="28">
                    <mxGeometry relative="1" as="geometry">
                        <mxPoint x="560.9950000000001" y="332.3700000000001" as="sourcePoint"/>
                        <mxPoint x="679.4899999999998" y="326" as="targetPoint"/>
                        <Array as="points"/>
                    </mxGeometry>
                </mxCell>
                <mxCell id="176" value="1" style="resizable=0;html=1;align=left;verticalAlign=bottom;labelBackgroundColor=none;labelBorderColor=none;fontSize=10;rounded=0;" connectable="0" vertex="1" parent="175">
                    <mxGeometry x="-1" relative="1" as="geometry"/>
                </mxCell>
                <mxCell id="177" value="1" style="resizable=0;html=1;align=right;verticalAlign=bottom;labelBackgroundColor=none;labelBorderColor=none;fontSize=10;rounded=0;" connectable="0" vertex="1" parent="175">
                    <mxGeometry x="1" relative="1" as="geometry"/>
                </mxCell>
                <mxCell id="138" value="" style="endArrow=none;html=1;rounded=0;align=center;verticalAlign=top;endFill=0;labelBackgroundColor=none;endSize=6;startArrow=oval;startFill=0;fontSize=10;entryX=1;entryY=1;entryDx=0;entryDy=0;" edge="1" parent="WIyWlLk6GJQsqaUBKTNV-1" target="27">
                    <mxGeometry relative="1" as="geometry">
                        <mxPoint x="752" y="646" as="sourcePoint"/>
                        <mxPoint x="747.5" y="656" as="targetPoint"/>
                        <Array as="points"/>
                    </mxGeometry>
                </mxCell>
                <mxCell id="185" value="" style="endArrow=none;html=1;rounded=0;align=center;verticalAlign=top;endFill=0;labelBackgroundColor=none;endSize=6;startArrow=oval;startFill=1;fontSize=10;fillColor=none;" edge="1" parent="WIyWlLk6GJQsqaUBKTNV-1">
                    <mxGeometry relative="1" as="geometry">
                        <mxPoint x="703" y="200" as="sourcePoint"/>
                        <mxPoint x="642" y="200" as="targetPoint"/>
                        <Array as="points"/>
                    </mxGeometry>
                </mxCell>
                <mxCell id="186" value="Indirizzo" style="ellipse;whiteSpace=wrap;html=1;align=center;labelBackgroundColor=none;labelBorderColor=none;fontSize=10;rounded=0;" vertex="1" parent="WIyWlLk6GJQsqaUBKTNV-1">
                    <mxGeometry x="615" y="24" width="74" height="40" as="geometry"/>
                </mxCell>
                <mxCell id="187" value="Via" style="text;html=1;strokeColor=none;fillColor=none;align=center;verticalAlign=middle;whiteSpace=wrap;rounded=0;labelBackgroundColor=none;labelBorderColor=none;fontSize=10;" vertex="1" parent="WIyWlLk6GJQsqaUBKTNV-1">
                    <mxGeometry x="532" y="29" width="35" height="30" as="geometry"/>
                </mxCell>
                <mxCell id="188" value="" style="endArrow=none;html=1;rounded=0;align=center;verticalAlign=top;endFill=0;labelBackgroundColor=none;endSize=6;startArrow=oval;startFill=0;fontSize=10;fillColor=none;exitX=1;exitY=0.5;exitDx=0;exitDy=0;" edge="1" source="187" parent="WIyWlLk6GJQsqaUBKTNV-1">
                    <mxGeometry relative="1" as="geometry">
                        <mxPoint x="722" y="84" as="sourcePoint"/>
                        <mxPoint x="615" y="44" as="targetPoint"/>
                        <Array as="points"/>
                    </mxGeometry>
                </mxCell>
                <mxCell id="189" value="CAP" style="text;html=1;strokeColor=none;fillColor=none;align=center;verticalAlign=middle;whiteSpace=wrap;rounded=0;labelBackgroundColor=none;labelBorderColor=none;fontSize=10;" vertex="1" parent="WIyWlLk6GJQsqaUBKTNV-1">
                    <mxGeometry x="536" width="39" height="24" as="geometry"/>
                </mxCell>
                <mxCell id="190" value="" style="endArrow=none;html=1;rounded=0;align=center;verticalAlign=top;endFill=0;labelBackgroundColor=none;endSize=6;startArrow=oval;startFill=0;fontSize=10;entryX=0;entryY=0;entryDx=0;entryDy=0;fillColor=none;exitX=1;exitY=0.5;exitDx=0;exitDy=0;" edge="1" source="189" parent="WIyWlLk6GJQsqaUBKTNV-1" target="186">
                    <mxGeometry relative="1" as="geometry">
                        <mxPoint x="543" y="30" as="sourcePoint"/>
                        <mxPoint x="765" y="109.5" as="targetPoint"/>
                        <Array as="points">
                            <mxPoint x="626" y="12"/>
                        </Array>
                    </mxGeometry>
                </mxCell>
                <mxCell id="192" value="Comune" style="text;html=1;strokeColor=none;fillColor=none;align=center;verticalAlign=middle;whiteSpace=wrap;rounded=0;labelBackgroundColor=none;labelBorderColor=none;fontSize=10;" vertex="1" parent="WIyWlLk6GJQsqaUBKTNV-1">
                    <mxGeometry x="728" y="29" width="60" height="30" as="geometry"/>
                </mxCell>
                <mxCell id="193" value="" style="endArrow=none;html=1;rounded=0;align=center;verticalAlign=top;endFill=0;labelBackgroundColor=none;endSize=6;startArrow=oval;startFill=0;fontSize=10;exitX=0;exitY=0.5;exitDx=0;exitDy=0;fillColor=none;entryX=1;entryY=0.5;entryDx=0;entryDy=0;" edge="1" source="192" parent="WIyWlLk6GJQsqaUBKTNV-1" target="186">
                    <mxGeometry relative="1" as="geometry">
                        <mxPoint x="730" y="-174" as="sourcePoint"/>
                        <mxPoint x="685" y="3" as="targetPoint"/>
                        <Array as="points"/>
                    </mxGeometry>
                </mxCell>
                <mxCell id="195" value="N. Civico" style="text;html=1;strokeColor=none;fillColor=none;align=center;verticalAlign=middle;whiteSpace=wrap;rounded=0;labelBackgroundColor=none;labelBorderColor=none;fontSize=10;" vertex="1" parent="WIyWlLk6GJQsqaUBKTNV-1">
                    <mxGeometry x="520" y="64" width="60" height="30" as="geometry"/>
                </mxCell>
                <mxCell id="196" value="" style="endArrow=none;html=1;rounded=0;align=center;verticalAlign=top;endFill=0;labelBackgroundColor=none;endSize=6;startArrow=oval;startFill=0;fontSize=10;exitX=1;exitY=0.5;exitDx=0;exitDy=0;entryX=0;entryY=1;entryDx=0;entryDy=0;fillColor=none;" edge="1" source="195" parent="WIyWlLk6GJQsqaUBKTNV-1" target="186">
                    <mxGeometry relative="1" as="geometry">
                        <mxPoint x="701.9999999999998" y="135" as="sourcePoint"/>
                        <mxPoint x="692" y="140.5" as="targetPoint"/>
                        <Array as="points">
                            <mxPoint x="626" y="79"/>
                        </Array>
                    </mxGeometry>
                </mxCell>
                <mxCell id="197" value="" style="endArrow=none;html=1;rounded=0;align=center;verticalAlign=top;endFill=0;labelBackgroundColor=none;endSize=6;startArrow=oval;startFill=0;fontSize=10;entryX=0.75;entryY=1;entryDx=0;entryDy=0;exitX=0;exitY=0.5;exitDx=0;exitDy=0;" edge="1" parent="WIyWlLk6GJQsqaUBKTNV-1" source="215" target="28">
                    <mxGeometry relative="1" as="geometry">
                        <mxPoint x="562" y="216" as="sourcePoint"/>
                        <mxPoint x="626" y="224" as="targetPoint"/>
                        <Array as="points">
                            <mxPoint x="703" y="186"/>
                        </Array>
                    </mxGeometry>
                </mxCell>
                <mxCell id="200" value="" style="group;rounded=0;fontSize=10;" connectable="0" vertex="1" parent="WIyWlLk6GJQsqaUBKTNV-1">
                    <mxGeometry x="790" y="201" width="60" height="30" as="geometry"/>
                </mxCell>
                <mxCell id="201" value="Nome" style="text;html=1;strokeColor=none;fillColor=none;align=center;verticalAlign=middle;whiteSpace=wrap;rounded=0;labelBackgroundColor=none;labelBorderColor=none;fontSize=10;" vertex="1" parent="200">
                    <mxGeometry width="60" height="30" as="geometry"/>
                </mxCell>
                <mxCell id="202" value="" style="endArrow=none;html=1;rounded=0;align=center;verticalAlign=top;endFill=0;labelBackgroundColor=none;endSize=6;startArrow=oval;startFill=0;fontSize=10;exitX=0;exitY=0.5;exitDx=0;exitDy=0;entryX=1;entryY=0.75;entryDx=0;entryDy=0;" edge="1" parent="WIyWlLk6GJQsqaUBKTNV-1" source="204" target="28">
                    <mxGeometry relative="1" as="geometry">
                        <mxPoint x="598" y="243" as="sourcePoint"/>
                        <mxPoint x="665" y="184" as="targetPoint"/>
                    </mxGeometry>
                </mxCell>
                <mxCell id="203" value="" style="group;rounded=0;fontSize=10;" connectable="0" vertex="1" parent="WIyWlLk6GJQsqaUBKTNV-1">
                    <mxGeometry x="790" y="147" width="60" height="30" as="geometry"/>
                </mxCell>
                <mxCell id="204" value="Costo" style="text;html=1;strokeColor=none;fillColor=none;align=center;verticalAlign=middle;whiteSpace=wrap;rounded=0;labelBackgroundColor=none;labelBorderColor=none;fontSize=10;" vertex="1" parent="203">
                    <mxGeometry width="60" height="30" as="geometry"/>
                </mxCell>
                <mxCell id="205" value="" style="endArrow=none;html=1;rounded=0;align=center;verticalAlign=top;endFill=0;labelBackgroundColor=none;endSize=6;startArrow=oval;startFill=0;fontSize=10;exitX=0;exitY=0.5;exitDx=0;exitDy=0;entryX=1;entryY=0.25;entryDx=0;entryDy=0;" edge="1" parent="WIyWlLk6GJQsqaUBKTNV-1" source="207" target="28">
                    <mxGeometry relative="1" as="geometry">
                        <mxPoint x="663" y="250" as="sourcePoint"/>
                        <mxPoint x="730" y="191" as="targetPoint"/>
                    </mxGeometry>
                </mxCell>
                <mxCell id="206" value="" style="group;rounded=0;fontSize=10;" connectable="0" vertex="1" parent="WIyWlLk6GJQsqaUBKTNV-1">
                    <mxGeometry x="790" y="124" width="60" height="30" as="geometry"/>
                </mxCell>
                <mxCell id="207" value="Orario&lt;br&gt;Check-in" style="text;html=1;strokeColor=none;fillColor=none;align=center;verticalAlign=middle;whiteSpace=wrap;rounded=0;labelBackgroundColor=none;labelBorderColor=none;fontSize=10;" vertex="1" parent="206">
                    <mxGeometry width="60" height="30" as="geometry"/>
                </mxCell>
                <mxCell id="208" value="" style="group;rounded=0;fontSize=10;" connectable="0" vertex="1" parent="WIyWlLk6GJQsqaUBKTNV-1">
                    <mxGeometry x="790" y="94" width="60" height="30" as="geometry"/>
                </mxCell>
                <mxCell id="209" value="Orario&lt;br&gt;Check-out" style="text;html=1;strokeColor=none;fillColor=none;align=center;verticalAlign=middle;whiteSpace=wrap;rounded=0;labelBackgroundColor=none;labelBorderColor=none;fontSize=10;" vertex="1" parent="208">
                    <mxGeometry width="60" height="30" as="geometry"/>
                </mxCell>
                <mxCell id="210" value="" style="endArrow=none;html=1;rounded=0;align=center;verticalAlign=top;endFill=0;labelBackgroundColor=none;endSize=6;startArrow=oval;startFill=0;fontSize=10;exitX=0;exitY=0.5;exitDx=0;exitDy=0;entryX=0.75;entryY=0;entryDx=0;entryDy=0;" edge="1" parent="WIyWlLk6GJQsqaUBKTNV-1" source="209" target="28">
                    <mxGeometry relative="1" as="geometry">
                        <mxPoint x="663" y="254" as="sourcePoint"/>
                        <mxPoint x="662.75" y="182" as="targetPoint"/>
                        <Array as="points">
                            <mxPoint x="703" y="109"/>
                        </Array>
                    </mxGeometry>
                </mxCell>
                <mxCell id="213" value="" style="endArrow=none;html=1;rounded=0;align=center;verticalAlign=top;endFill=0;labelBackgroundColor=none;endSize=6;startArrow=oval;startFill=0;fontSize=10;exitX=0;exitY=0.5;exitDx=0;exitDy=0;entryX=0.5;entryY=0;entryDx=0;entryDy=0;" edge="1" parent="WIyWlLk6GJQsqaUBKTNV-1" source="212" target="28">
                    <mxGeometry relative="1" as="geometry">
                        <mxPoint x="722.8200000000002" y="204.09000000000015" as="sourcePoint"/>
                        <mxPoint x="785" y="103" as="targetPoint"/>
                        <Array as="points">
                            <mxPoint x="678" y="78"/>
                        </Array>
                    </mxGeometry>
                </mxCell>
                <mxCell id="214" value="" style="group;rounded=0;fontSize=10;" connectable="0" vertex="1" parent="WIyWlLk6GJQsqaUBKTNV-1">
                    <mxGeometry x="790" y="171" width="60" height="30" as="geometry"/>
                </mxCell>
                <mxCell id="215" value="Posti letto" style="text;html=1;strokeColor=none;fillColor=none;align=center;verticalAlign=middle;whiteSpace=wrap;rounded=0;labelBackgroundColor=none;labelBorderColor=none;fontSize=10;" vertex="1" parent="214">
                    <mxGeometry width="60" height="30" as="geometry"/>
                </mxCell>
                <mxCell id="217" value="" style="endArrow=none;html=1;rounded=0;align=center;verticalAlign=top;endFill=0;labelBackgroundColor=none;endSize=6;startArrow=oval;startFill=1;fontSize=10;exitX=1;exitY=0.5;exitDx=0;exitDy=0;" edge="1" parent="WIyWlLk6GJQsqaUBKTNV-1">
                    <mxGeometry relative="1" as="geometry">
                        <mxPoint x="264" y="840.5" as="sourcePoint"/>
                        <mxPoint x="178" y="779" as="targetPoint"/>
                    </mxGeometry>
                </mxCell>
                <mxCell id="218" value="visibilità" style="text;strokeColor=none;fillColor=none;spacingLeft=4;spacingRight=4;overflow=hidden;rotatable=0;points=[[0,0.5],[1,0.5]];portConstraint=eastwest;fontSize=10;" vertex="1" parent="WIyWlLk6GJQsqaUBKTNV-1">
                    <mxGeometry x="348" y="845" width="57" height="30" as="geometry"/>
                </mxCell>
                <mxCell id="212" value="Costo&lt;br&gt;pulizia" style="text;html=1;strokeColor=none;fillColor=none;align=center;verticalAlign=middle;whiteSpace=wrap;rounded=0;labelBackgroundColor=none;labelBorderColor=none;fontSize=10;" vertex="1" parent="WIyWlLk6GJQsqaUBKTNV-1">
                    <mxGeometry x="790" y="64" width="60" height="30" as="geometry"/>
                </mxCell>
                <mxCell id="224" value="" style="shape=flexArrow;endArrow=classic;html=1;fontFamily=Helvetica;fontSize=10;entryX=0;entryY=0.5;entryDx=0;entryDy=0;rounded=0;fillColor=none;exitX=1;exitY=0.5;exitDx=0;exitDy=0;" edge="1" parent="WIyWlLk6GJQsqaUBKTNV-1" source="226" target="28">
                    <mxGeometry width="50" height="50" relative="1" as="geometry">
                        <mxPoint x="517" y="151" as="sourcePoint"/>
                        <mxPoint x="483" y="174.5" as="targetPoint"/>
                        <Array as="points">
                            <mxPoint x="590" y="115"/>
                            <mxPoint x="590" y="151"/>
                        </Array>
                    </mxGeometry>
                </mxCell>
                <mxCell id="226" value="&lt;font style=&quot;font-size: 10px&quot;&gt;Intero Appartamento&lt;/font&gt;" style="rounded=0;whiteSpace=wrap;html=1;fontSize=10;" vertex="1" parent="WIyWlLk6GJQsqaUBKTNV-1">
                    <mxGeometry x="466" y="102" width="101" height="26" as="geometry"/>
                </mxCell>
                <mxCell id="229" value="" style="endArrow=none;html=1;rounded=0;align=center;verticalAlign=top;endFill=0;labelBackgroundColor=none;endSize=6;startArrow=oval;startFill=0;fontSize=10;entryX=1;entryY=0.25;entryDx=0;entryDy=0;exitX=0;exitY=0.5;exitDx=0;exitDy=0;" edge="1" parent="WIyWlLk6GJQsqaUBKTNV-1" source="146" target="27">
                    <mxGeometry relative="1" as="geometry">
                        <mxPoint x="778" y="571" as="sourcePoint"/>
                        <mxPoint x="700" y="571" as="targetPoint"/>
                        <Array as="points"/>
                    </mxGeometry>
                </mxCell>
                <mxCell id="230" value="&lt;font style=&quot;font-size: 10px&quot;&gt;Stanze Condivise&lt;/font&gt;" style="rounded=0;whiteSpace=wrap;html=1;fontSize=10;" vertex="1" parent="WIyWlLk6GJQsqaUBKTNV-1">
                    <mxGeometry x="466" y="138" width="101" height="26" as="geometry"/>
                </mxCell>
                <mxCell id="231" value="&lt;font style=&quot;font-size: 10px&quot;&gt;Stanze Singole&lt;/font&gt;" style="rounded=0;whiteSpace=wrap;html=1;fontSize=10;" vertex="1" parent="WIyWlLk6GJQsqaUBKTNV-1">
                    <mxGeometry x="466" y="173" width="101" height="26" as="geometry"/>
                </mxCell>
                <mxCell id="233" value="superhost" style="text;html=1;strokeColor=none;fillColor=none;align=center;verticalAlign=middle;whiteSpace=wrap;rounded=0;" vertex="1" parent="WIyWlLk6GJQsqaUBKTNV-1">
                    <mxGeometry x="124" y="430" width="60" height="30" as="geometry"/>
                </mxCell>
                <mxCell id="235" value="" style="shape=flexArrow;endArrow=classic;html=1;fontSize=10;fillColor=none;entryX=0;entryY=0.5;entryDx=0;entryDy=0;exitX=1;exitY=0.5;exitDx=0;exitDy=0;rounded=0;" edge="1" parent="WIyWlLk6GJQsqaUBKTNV-1" source="231" target="28">
                    <mxGeometry width="50" height="50" relative="1" as="geometry">
                        <mxPoint x="437" y="290" as="sourcePoint"/>
                        <mxPoint x="487" y="240" as="targetPoint"/>
                        <Array as="points">
                            <mxPoint x="590" y="186"/>
                            <mxPoint x="590" y="150"/>
                        </Array>
                    </mxGeometry>
                </mxCell>
                <mxCell id="236" value="" style="shape=flexArrow;endArrow=classic;html=1;rounded=0;fontSize=10;fillColor=none;exitX=1;exitY=0.5;exitDx=0;exitDy=0;" edge="1" parent="WIyWlLk6GJQsqaUBKTNV-1" source="230" target="28">
                    <mxGeometry width="50" height="50" relative="1" as="geometry">
                        <mxPoint x="542" y="148" as="sourcePoint"/>
                        <mxPoint x="592" y="98" as="targetPoint"/>
                    </mxGeometry>
                </mxCell>
                <mxCell id="242" style="edgeStyle=none;rounded=0;html=1;exitX=0;exitY=0.5;exitDx=0;exitDy=0;entryX=1;entryY=0.5;entryDx=0;entryDy=0;fontSize=10;startArrow=none;startFill=0;endArrow=none;endFill=0;fillColor=none;" edge="1" parent="WIyWlLk6GJQsqaUBKTNV-1" source="240" target="29">
                    <mxGeometry relative="1" as="geometry"/>
                </mxCell>
                <mxCell id="240" value="Riserva" style="shape=rhombus;perimeter=rhombusPerimeter;whiteSpace=wrap;html=1;align=center;labelBackgroundColor=none;labelBorderColor=none;fontSize=10;rounded=0;" vertex="1" parent="WIyWlLk6GJQsqaUBKTNV-1">
                    <mxGeometry x="452" y="252" width="120" height="60" as="geometry"/>
                </mxCell>
                <mxCell id="153" value="Telefono" style="text;html=1;strokeColor=none;fillColor=none;align=center;verticalAlign=middle;whiteSpace=wrap;rounded=0;labelBackgroundColor=none;labelBorderColor=none;fontSize=10;" vertex="1" parent="WIyWlLk6GJQsqaUBKTNV-1">
                    <mxGeometry x="790" y="501" width="60" height="36" as="geometry"/>
                </mxCell>
                <mxCell id="143" value="Cognome" style="text;html=1;strokeColor=none;fillColor=none;align=center;verticalAlign=middle;whiteSpace=wrap;rounded=0;labelBackgroundColor=none;labelBorderColor=none;fontSize=10;" vertex="1" parent="WIyWlLk6GJQsqaUBKTNV-1">
                    <mxGeometry x="788" y="596" width="60" height="27" as="geometry"/>
                </mxCell>
                <mxCell id="146" value="e-mail" style="text;html=1;strokeColor=none;fillColor=none;align=center;verticalAlign=middle;whiteSpace=wrap;rounded=0;labelBackgroundColor=none;labelBorderColor=none;fontSize=10;" vertex="1" parent="WIyWlLk6GJQsqaUBKTNV-1">
                    <mxGeometry x="790" y="554" width="60" height="30" as="geometry"/>
                </mxCell>
                <mxCell id="134" value="Nome" style="text;html=1;strokeColor=none;fillColor=none;align=center;verticalAlign=middle;whiteSpace=wrap;rounded=0;labelBackgroundColor=none;labelBorderColor=none;fontSize=10;" vertex="1" parent="WIyWlLk6GJQsqaUBKTNV-1">
                    <mxGeometry x="760" y="637" width="38.47826086956522" height="29.285714285714285" as="geometry"/>
                </mxCell>
                <mxCell id="248" style="edgeStyle=none;rounded=0;html=1;exitX=1;exitY=0.5;exitDx=0;exitDy=0;entryX=0.25;entryY=1;entryDx=0;entryDy=0;fontSize=10;startArrow=none;startFill=0;endArrow=none;endFill=0;fillColor=none;" edge="1" parent="WIyWlLk6GJQsqaUBKTNV-1" source="243" target="25">
                    <mxGeometry relative="1" as="geometry">
                        <Array as="points">
                            <mxPoint x="627" y="526"/>
                        </Array>
                    </mxGeometry>
                </mxCell>
                <mxCell id="243" value="Conferma" style="shape=rhombus;perimeter=rhombusPerimeter;whiteSpace=wrap;html=1;align=center;labelBackgroundColor=none;labelBorderColor=none;fontSize=10;rounded=0;" vertex="1" parent="WIyWlLk6GJQsqaUBKTNV-1">
                    <mxGeometry x="428" y="496" width="120" height="60" as="geometry"/>
                </mxCell>
                <mxCell id="247" style="edgeStyle=none;rounded=0;html=1;exitX=1;exitY=0.5;exitDx=0;exitDy=0;entryX=0.25;entryY=0;entryDx=0;entryDy=0;fontSize=10;startArrow=none;startFill=0;endArrow=none;endFill=0;fillColor=none;" edge="1" parent="WIyWlLk6GJQsqaUBKTNV-1" source="244" target="25">
                    <mxGeometry relative="1" as="geometry">
                        <Array as="points">
                            <mxPoint x="627" y="455"/>
                        </Array>
                    </mxGeometry>
                </mxCell>
                <mxCell id="244" value="Cancella" style="shape=rhombus;perimeter=rhombusPerimeter;whiteSpace=wrap;html=1;align=center;labelBackgroundColor=none;labelBorderColor=none;fontSize=10;rounded=0;" vertex="1" parent="WIyWlLk6GJQsqaUBKTNV-1">
                    <mxGeometry x="429.5" y="425" width="120" height="60" as="geometry"/>
                </mxCell>
                <mxCell id="246" value="richiede" style="shape=rhombus;perimeter=rhombusPerimeter;whiteSpace=wrap;html=1;align=center;labelBackgroundColor=none;labelBorderColor=none;fontSize=10;rounded=0;" vertex="1" parent="WIyWlLk6GJQsqaUBKTNV-1">
                    <mxGeometry x="447" y="596" width="120" height="60" as="geometry"/>
                </mxCell>
            </root>
        </mxGraphModel>
    </diagram>
</mxfile>